<?xml version="1.0" encoding="UTF-8"?>
<svg width="235px" height="32px" viewBox="0 0 235 32" version="1.1" xmlns="http://www.w3.org/2000/svg" xmlns:xlink="http://www.w3.org/1999/xlink">
    <!-- Generator: Sketch 55.2 (78181) - https://sketchapp.com -->
    <title>编组</title>
    <desc>Created with Sketch.</desc>
    <defs>
        <polygon id="path-1" points="0 0.126257778 27.8490003 0.126257778 27.8490003 32 0 32"></polygon>
        <polygon id="path-3" points="0 32 234.847672 32 234.847672 0.126222222 0 0.126222222"></polygon>
    </defs>
    <g id="页面1" stroke="none" stroke-width="1" fill="none" fill-rule="evenodd">
        <g id="首页" transform="translate(-360.000000, -14.000000)">
            <g id="编组" transform="translate(360.000000, 14.000000)">
                <path d="M53.3751703,18.8306875 L56.7181716,12.7855872 L57.5759154,18.8306875 L53.3751703,18.8306875 Z M53.8536175,10 L45,26 L49.4076997,26 L51.3283391,22.5216169 L58.0994311,22.5216169 L58.5944636,26 L63,26 L60.725663,10 L53.8536175,10 Z" id="Fill-1" fill="#F58A1E"></path>
                <polygon id="Fill-2" fill="#F58A1E" points="34.7300108 10 34 13.6930373 39.8165152 13.6930373 37.3838392 26 42.2138345 26 44.6433908 13.6930373 50.0408258 13.6930373 52 10"></polygon>
                <polygon id="Fill-3" fill="#F58A1E" points="77.2473234 26 78 22.30626 69.4254248 22.30626 71.9356586 10 67.2639836 10 64 26"></polygon>
                <g>
                    <path d="M10.4800501,8.81301333 C10.8300876,8.84714667 10.8867268,9.18279111 10.8867268,9.18279111 L11.2357088,11.1977244 C11.2357088,11.1977244 11.3067717,11.6311467 11.1713301,11.9408356 C11.028149,12.2768356 10.5834783,12.48768 10.5834783,12.48768 L3.43391991,15.2119467 C3.43391991,15.2119467 3.30973578,15.2425244 3.22741542,15.2119467 C3.1510756,15.1767467 3.131375,15.0921244 3.131375,15.0921244 L2.91361302,14.2907022 C2.91361302,14.2907022 2.87808159,14.1943467 2.92451871,14.1075911 C2.96180913,14.0343467 3.03498278,13.9845689 3.03498278,13.9845689 L9.92913698,8.99328 C9.92913698,8.99328 10.1722283,8.78243556 10.4800501,8.81301333" id="Fill-4" fill="#F58A1E"></path>
                    <path d="M17.3689626,8.81301333 C17.0189251,8.84714667 16.9622859,9.18279111 16.9622859,9.18279111 L16.6136557,11.1977244 C16.6136557,11.1977244 16.542241,11.6311467 16.6776826,11.9408356 C16.8212156,12.2768356 17.2655344,12.48768 17.2655344,12.48768 L24.4150928,15.2119467 C24.4150928,15.2119467 24.5392769,15.2425244 24.6215973,15.2119467 C24.6979371,15.1767467 24.7176377,15.0921244 24.7176377,15.0921244 L24.9357515,14.2907022 C24.9357515,14.2907022 24.9709311,14.1943467 24.9248458,14.1075911 C24.8872036,14.0343467 24.8140299,13.9845689 24.8140299,13.9845689 L17.9202275,8.99328 C17.9202275,8.99328 17.6767844,8.78243556 17.3689626,8.81301333" id="Fill-6" fill="#F58A1E"></path>
                    <g>
                        <mask id="mask-2" fill="white">
                            <use xlink:href="#path-1"></use>
                        </mask>
                        <g id="Clip-9"></g>
                        <path d="M0.0144588323,19.2711467 C0.0433061377,19.1890133 0.195633982,19.1211022 0.195633982,19.1211022 L10.9690472,13.41728 C12.0726325,12.8373689 12.0687627,11.5029689 12.0687627,11.5029689 L12.2365696,7.74439111 L12.2365696,7.74261333 C12.1640996,7.03861333 11.3715022,7.33870222 11.1906789,7.41905778 L4.37814147,10.9355022 C4.37814147,10.9355022 4.2866744,10.9941689 4.16636003,10.9593244 C4.07489296,10.9355022 4.02845584,10.8377244 4.02845584,10.8377244 L3.73048428,10.08288 C3.73048428,10.08288 3.68052919,9.96163556 3.7086729,9.88554667 C3.73927919,9.80874667 3.81069386,9.75256889 3.81069386,9.75256889 L11.3964798,3.38030222 C12.2232013,2.72359111 12.4434259,2.05301333 12.5028795,1.77425778 C12.5028795,1.77425778 12.6348031,1.24163556 12.7684858,0.913102222 C12.7730591,0.901724444 12.7776325,0.891413333 12.7825576,0.880035556 C12.8152747,0.803591111 12.84764,0.736746667 12.8778945,0.699057778 L12.8796534,0.699057778 C13.1030442,0.354524444 13.4872058,0.126257778 13.9248406,0.126257778 C14.3624753,0.126257778 14.7462852,0.354524444 14.9700277,0.699057778 L14.9710831,0.699057778 C15.000634,0.73568 15.0319439,0.800746667 15.0639573,0.874702222 C15.0706415,0.888924444 15.076622,0.903146667 15.0826025,0.917724444 C15.2155816,1.24661333 15.3460981,1.77425778 15.3460981,1.77425778 C15.4059034,2.05301333 15.6257762,2.72359111 16.4524978,3.38030222 L24.0382837,9.75256889 C24.0382837,9.75256889 24.1096984,9.80874667 24.1406564,9.88554667 C24.1684484,9.96163556 24.1184933,10.08288 24.1184933,10.08288 L23.8205217,10.8377244 C23.8205217,10.8377244 23.7740846,10.9355022 23.6826175,10.9593244 C23.5626549,10.9941689 23.4708361,10.9355022 23.4708361,10.9355022 L16.6586504,7.41905778 C16.4774753,7.33870222 15.684878,7.03861333 15.6124079,7.74261333 L15.6124079,7.74439111 L15.7802148,11.5029689 C15.7802148,11.5029689 15.7763451,12.8373689 16.8799304,13.41728 L27.6533436,19.1211022 C27.6533436,19.1211022 27.8056714,19.1890133 27.8345187,19.2711467 C27.8682912,19.3618133 27.8324079,19.5257244 27.8324079,19.5257244 L27.4355816,21.16768 C27.4355816,21.16768 27.4063825,21.3152356 27.2969738,21.36608 C27.1646984,21.4311467 27.0070936,21.3714133 27.0070936,21.3714133 L20.3876924,18.97248 C20.3032612,18.9507911 20.1062552,18.9234133 20.1611355,19.0969244 C20.1611355,19.0969244 20.1604319,19.0976356 20.1604319,19.1011911 L25.5643765,24.32288 C25.5643765,24.32288 25.6857463,24.4242133 25.6994663,24.5639467 C25.7110756,24.6965689 25.5844289,24.8469689 25.5844289,24.8469689 L23.4233436,27.3785244 C23.4233436,27.3785244 23.2045262,27.6398578 22.9023331,27.6331022 C22.6201924,27.6274133 22.377101,27.3390578 22.377101,27.3390578 L16.7969064,20.3591467 C16.6776475,20.1571911 16.1605067,20.0647467 16.175634,20.6123022 L16.6670936,31.5026133 C16.6670936,31.5026133 16.6716669,31.7223467 16.566128,31.8403911 C16.4317418,31.9911467 16.1791519,32.0000356 16.1791519,32.0000356 L11.6698256,32.0000356 C11.6698256,32.0000356 11.4172358,31.9911467 11.2828496,31.8403911 C11.1773106,31.7223467 11.1822358,31.5026133 11.1822358,31.5026133 L11.6733436,20.6123022 C11.6884708,20.0647467 11.1713301,20.1571911 11.0517193,20.3591467 L5.47222829,27.3390578 C5.47222829,27.3390578 5.22878518,27.6274133 4.94699626,27.6331022 C4.64445135,27.6398578 4.42563398,27.3785244 4.42563398,27.3785244 L2.26454865,24.8469689 C2.26454865,24.8469689 2.13790195,24.6965689 2.14951123,24.5639467 C2.16323129,24.4242133 2.28460105,24.32288 2.28460105,24.32288 L7.68854566,19.1011911 C7.68854566,19.0976356 7.68784207,19.0976356 7.68784207,19.0976356 C7.7430741,18.9234133 7.54571632,18.9507911 7.46163698,18.97248 L0.842587575,21.3714133 C0.842587575,21.3714133 0.684279192,21.4311467 0.552003743,21.36608 C0.442243263,21.3152356 0.413395958,21.16768 0.413395958,21.16768 L0.0165696108,19.5257244 C0.0165696108,19.5257244 -0.0193136228,19.3618133 0.0144588323,19.2711467" id="Fill-8" fill="#0077C0" mask="url(#mask-2)"></path>
                    </g>
                    <path d="M100.612436,11.3529244 C100.192391,10.63008 99.0550329,10.6552168 99.0550329,10.6552168 L93.9135284,10.6552168 L93.4069416,13.2107022 L96.3915823,13.2107022 C96.5171737,13.2107022 97.192271,13.1975467 96.7303623,14.1315911 L95.4783189,16.18848 L92.0736332,16.18848 L90.9549207,19.0446578 L94.6734087,19.0446578 L93.8611108,22.5977244 L93.8568892,22.5963022 C93.8568892,22.5963022 93.743259,23.6629689 92.4219117,23.85568 L91.2968668,23.85568 L90.819479,26.2638578 L93.779494,26.2638578 C93.779494,26.2638578 94.9221287,26.2375467 95.5982814,25.6391467 C96.2227201,25.0784356 96.3148907,24.2802133 96.3148907,24.2802133 L97.4638578,19.0446578 L100.277525,19.0446578 L100.841455,16.1806578 L98.405265,16.18848 L100.612436,13.0258133 C100.612436,13.0258133 101.094749,12.1831467 100.612436,11.3529244" id="Fill-10" fill="#0077C0"></path>
                    <path d="M132.755088,10.6298311 C132.755088,10.6298311 132.7769,10.3834311 132.685433,10.2724978 C132.560193,10.1249422 132.34806,10.1206756 132.34806,10.1206756 L129.829198,10.1206756 L129.796129,10.2838756 L129.796129,10.28352 L129.795073,10.2902756 L129.766226,10.4317867 L129.766578,10.4321422 L129.625507,11.1404089 L123.996061,11.1404089 L123.440927,13.9020089 L128.247521,13.9020089 L129.086204,13.9020089 L128.589115,16.3930311 C128.567656,16.4772978 128.457192,16.8004978 127.980859,16.9146311 L127.898891,16.9146311 L127.878487,16.9146311 C127.556945,16.8776533 127.442259,16.6248533 127.404265,16.4876089 L127.388786,16.4140089 C127.385972,16.4029867 127.382102,16.3930311 127.382102,16.3930311 L127.382102,16.3972978 L127.043674,15.2580978 C127.043674,15.2580978 126.991256,14.9149867 126.744295,14.7738311 C126.552918,14.6618311 126.119856,14.64512 126.119856,14.64512 L124.179347,14.6358756 C124.179347,14.6358756 124.07029,14.6330311 124.01154,14.7069867 C123.940126,14.7976533 123.965455,14.9025422 123.965455,14.9025422 L124.391481,16.4772978 C124.39535,16.6493867 124.298606,16.8900978 123.764931,16.9146311 L123.733269,16.9146311 L121.284063,16.9146311 L120.721189,19.7640533 L124.063958,19.7640533 C124.263427,19.8102756 124.523052,19.9290311 124.373891,20.2600533 C123.736436,21.3260089 122.567416,22.5878756 120.464025,23.4447644 L119.92824,26.4534756 C119.92824,26.4534756 125.807461,24.9416533 127.894317,19.9919644 L127.90065,19.9919644 L126.623629,26.25792 L129.659632,26.25792 L130.820912,20.4612978 C131.794332,24.66432 136.628015,27.00992 136.628015,27.00992 L137.272154,23.7039644 C135.280283,22.8858311 134.250927,21.4198756 133.707401,20.3340089 C133.539946,19.9194311 133.881189,19.7590756 134.081713,19.7640533 L138.033442,19.7640533 L138.600537,16.9146311 L136.13937,16.9146311 C135.832603,16.8410311 135.995133,16.5292089 135.995133,16.5292089 L135.993022,16.5292089 L136.829946,15.1222756 C136.829946,15.1222756 136.886234,15.0017422 136.843314,14.9370311 C136.802506,14.8815644 136.647716,14.8815644 136.647716,14.8815644 L134.65901,14.8815644 C134.65901,14.8815644 134.198861,14.84992 133.85199,15.0301867 C133.595178,15.1645867 133.392895,15.5212089 133.392895,15.5212089 L132.870829,16.3304533 L132.869422,16.3293867 C132.869422,16.3293867 132.854647,16.3542756 132.833891,16.3930311 L132.803284,16.4442311 C132.703374,16.6045867 132.503202,16.86912 132.229856,16.9146311 L132.091249,16.9146311 C132.078232,16.9146311 132.069437,16.9146311 132.050088,16.9114311 C131.722566,16.8996978 131.617731,16.7368533 131.587828,16.5868089 L132.102506,13.9020089 L137.75904,13.9020089 L138.296585,11.1404089 L132.657289,11.1404089 L132.755088,10.6298311 Z" id="Fill-12" fill="#0077C0"></path>
                    <path d="M115.342538,19.0400711 L118.963227,19.0400711 L119.530674,16.18816 L112.975652,16.18816 L113.242314,14.8125156 C113.242314,14.8139378 113.283474,14.6212267 113.340113,14.3282489 C113.679245,14.3286044 118.461213,14.3250489 118.461213,14.3250489 L119.022329,11.4770489 L113.932538,11.4770489 L113.911079,11.4770489 C113.988474,11.07456 114.041595,10.7990044 114.041595,10.7990044 C114.041595,10.7990044 114.122508,10.4082489 113.937815,10.2546489 C113.740809,10.0918044 113.483294,10.1035378 113.483294,10.1035378 L111.118519,10.1035378 L110.964784,10.8950044 C110.964784,10.89216 110.91905,11.1268267 110.849043,11.4770489 L105.466558,11.4770489 L104.903332,14.3250489 L110.203144,14.3250489 L110.285113,14.3250489 L110.260487,14.4526933 L109.917134,16.18816 L103.031775,16.18816 L102.468197,19.0400711 L105.872531,19.0400711 C106.014656,19.0894933 106.279207,19.2263822 106.121603,19.5926044 C106.106124,19.62496 106.103661,19.6512711 106.106124,19.6736711 C105.482037,20.6784711 103.930615,22.3677156 101.614739,23.3479822 L101.000854,26.4423822 C101.000854,26.4423822 107.416565,24.67456 109.22304,19.6900267 L107.921041,26.2695822 L110.983429,26.2695822 L112.130989,20.45056 C113.056213,24.5351822 117.486385,26.5842489 117.486385,26.5842489 L118.11399,23.4190933 C116.103122,22.4406044 115.333391,20.6582044 115.046326,19.5702044 L115.054065,19.5716267 C115.054065,19.5716267 114.851079,19.1424711 115.342538,19.0400711" id="Fill-14" fill="#0077C0"></path>
                    <path d="M86.8559648,20.2263822 C86.5506055,20.0080711 86.3004783,19.7453156 85.9733076,19.5035378 C85.9733076,19.5035378 87.0867433,17.5131378 88.106601,15.25216 L88.8295427,15.25216 C88.9642807,15.27456 89.2101864,15.3744711 89.1574169,15.7346489 C88.9086969,16.4990933 87.9933226,18.6228267 86.8559648,20.2263822 M90.4671549,12.2733156 L89.2879334,12.2818489 C89.4247822,11.8210489 89.5897747,11.2397156 89.720643,10.7366044 L89.7192358,10.7358933 C89.7428061,10.6587378 89.8089439,10.3814044 89.6087717,10.2128711 C89.4701639,10.0966044 89.3030606,10.0710044 89.2158151,10.06496 C89.2031504,10.0638933 89.1940037,10.0638933 89.1852088,10.0635378 C89.167619,10.0624711 89.1542507,10.0624711 89.1542507,10.0624711 L89.1567133,10.0653156 L86.8330981,10.0749156 C86.8330981,10.0749156 86.722634,10.9726933 86.3961669,12.3088711 L84.372634,12.3230933 L83.7925217,15.25216 L85.487125,15.25216 C84.9010322,16.8166044 84.0767732,18.5133156 82.9327313,19.9984711 C82.9327313,19.9984711 83.8966534,20.6100267 85.150104,21.9024711 C84.3205681,22.75616 83.39464,23.4302933 82.0546475,24.0098489 L81.4456879,27.0818489 C81.4456879,27.0818489 84.0704409,26.52256 86.8897373,23.8150044 C87.4096924,24.5300267 88.0063391,25.2333156 88.4967433,26.1556267 L90.2282852,23.4253156 C90.2282852,23.4253156 89.660134,22.5918933 88.7514439,21.6749156 C90.4080531,19.4807822 91.5858675,15.3911822 91.9257028,14.2555378 C92.5065187,12.3166933 90.4671549,12.2733156 90.4671549,12.2733156" id="Fill-16" fill="#0077C0"></path>
                    <mask id="mask-4" fill="white">
                        <use xlink:href="#path-3"></use>
                    </mask>
                    <g id="Clip-19"></g>
                    <path d="M178.03009,15.8545778 L180.569708,15.8545778 L180.569708,13.1008 L178.03009,13.1008 L178.03009,15.8545778 Z M175.944641,17.6565333 L182.655509,17.6565333 L182.655509,11.2988444 L175.944641,11.2988444 L175.944641,17.6565333 Z M170.932246,24.3544889 L179.308518,24.3544889 L179.308518,23.2494222 L170.932246,23.2494222 L170.932246,24.3544889 Z M170.931894,21.6003556 L179.308166,21.6003556 L179.308166,20.4103111 L170.931894,20.4103111 L170.931894,21.6003556 Z M169.948271,18.6254222 L173.808533,18.6254222 C173.096145,17.9512889 172.437582,17.3536 171.831789,16.832 C171.411392,17.5008 170.783436,18.0984889 169.948271,18.6254222 L169.948271,18.6254222 Z M168.409162,14.0867556 L170.528383,14.0867556 C170.584671,13.7354667 170.62372,13.3443556 170.646235,12.9137778 L169.426909,12.9137778 C169.101849,13.3500444 168.762365,13.7411556 168.409162,14.0867556 L168.409162,14.0867556 Z M168.678638,26.8874667 L168.678638,19.3056 C168.493241,19.3848889 168.302567,19.4641778 168.106617,19.5434667 C167.691497,18.9429333 167.2711,18.416 166.845075,17.9623111 C168.560786,17.2824889 169.617582,16.5461333 170.015464,15.7525333 L166.996347,15.7525333 L166.996347,14.0867556 L168.039072,14.0867556 C167.702754,13.5484444 167.372066,13.0780444 167.047006,12.6755556 C167.652448,12.0864 168.263518,11.2081778 168.880217,10.0408889 L171.050097,10.0408889 C170.864701,10.4600889 170.671564,10.8568889 170.469633,11.2305778 L175.17104,11.2305778 L175.17104,12.9137778 L172.824558,12.9137778 C172.796415,13.3272889 172.751737,13.7184 172.68982,14.0867556 L175.675165,14.0867556 L175.675165,15.7525333 L173.05991,15.7525333 L175.456699,17.3674667 L174.363668,18.6254222 L181.562478,18.6254222 L181.562478,26.8874667 L179.308166,26.8874667 L179.308166,26.1393778 L170.932246,26.1393778 L170.932246,26.8874667 L168.678638,26.8874667 Z" id="Fill-18" fill="#0077C0" mask="url(#mask-4)"></path>
                    <path d="M198.533805,22.3824356 C199.28489,23.3797689 199.974763,24.3315911 200.602368,25.2382578 L198.887008,26.3091911 C198.225279,25.17568 197.580436,24.1730133 196.95248,23.30048 L198.533805,22.3824356 Z M195.136155,22.9264356 C195.76376,23.2211911 196.436746,23.5159467 197.154411,23.8103467 C197.019673,24.3657244 196.851866,24.9040356 196.649935,25.42528 C196.357944,26.2185244 195.618116,26.6153244 194.429748,26.6153244 L190.476963,26.6153244 C188.839703,26.6153244 188.021073,25.9973689 188.021073,24.7621689 L188.021073,22.7223467 L190.241612,22.7223467 L190.241612,24.0823467 C190.241612,24.6377244 190.538528,24.9154133 191.133064,24.9154133 L193.555182,24.9154133 C194.272847,24.9154133 194.693243,24.7113244 194.816724,24.3031467 C194.90608,24.0425244 195.012674,23.5838578 195.136155,22.9264356 L195.136155,22.9264356 Z M184.388071,14.91968 L187.348438,14.91968 L187.348438,14.2907022 L185.061058,14.2907022 L185.061058,13.0327467 L187.348438,13.0327467 L187.348438,12.4037689 L184.808468,12.4037689 L184.808468,11.1454578 L187.348438,11.1454578 L187.348438,10.1257244 L189.366694,10.1257244 L189.366694,11.1454578 L191.906664,11.1454578 L191.906664,12.4037689 L189.366694,12.4037689 L189.366694,13.0327467 L191.63754,13.0327467 L191.63754,14.2907022 L189.366694,14.2907022 L189.366694,14.91968 L192.024516,14.91968 L192.024516,16.1776356 L189.366694,16.1776356 L189.366694,16.8574578 L194.967644,16.8574578 L194.967644,16.1776356 L192.613071,16.1776356 L192.613071,14.91968 L194.967644,14.91968 L194.967644,14.2907022 L193.134433,14.2907022 L193.134433,13.0327467 L194.967644,13.0327467 L194.967644,12.4037689 L192.730923,12.4037689 L192.730923,11.1454578 L194.967644,11.1454578 L194.967644,10.1257244 L196.986252,10.1257244 L196.986252,11.1454578 L199.98004,11.1454578 L199.98004,12.4037689 L196.986252,12.4037689 L196.986252,13.0327467 L199.711267,13.0327467 L199.711267,14.2907022 L196.986252,14.2907022 L196.986252,14.91968 L200.097891,14.91968 L200.097891,16.1776356 L196.986252,16.1776356 L196.986252,16.8574578 L198.920781,16.8574578 L198.920781,22.1954133 L192.764695,22.1954133 C193.224141,22.6939022 193.667053,23.2041244 194.093079,23.7253689 L192.613071,24.8133689 C192.153273,24.1673244 191.609396,23.4818133 190.981439,22.75648 L191.771926,22.1954133 L185.46492,22.1954133 L185.46492,20.8183467 L196.700242,20.8183467 L196.700242,20.1723022 L186.23852,20.1723022 L186.23852,18.9147022 L196.700242,18.9147022 L196.700242,18.2174578 L185.598954,18.2174578 L185.598954,16.8574578 L187.348438,16.8574578 L187.348438,16.1776356 L184.388071,16.1776356 L184.388071,14.91968 Z M185.801237,22.5523911 L187.600676,23.4025244 C186.939299,24.6035911 186.316619,25.6179911 185.733692,26.4453689 L183.984561,25.3744356 C184.645938,24.5129244 185.251379,23.57248 185.801237,22.5523911 L185.801237,22.5523911 Z" id="Fill-20" fill="#0077C0" mask="url(#mask-4)"></path>
                    <path d="M212.510852,15.7696 C212.746204,17.4471111 213.1666,18.9201778 213.772042,20.1895111 C214.489707,18.7047111 214.916084,16.9653333 215.05047,14.9706667 L212.79651,14.9706667 C212.707154,15.2426667 212.611466,15.5089778 212.510852,15.7696 L212.510852,15.7696 Z M207.733808,13.7976889 L206.287573,13.7976889 L206.287573,15.0556444 L206.724856,15.0556444 C207.061174,14.6702222 207.397491,14.2510222 207.733808,13.7976889 L207.733808,13.7976889 Z M202.687993,22.0593778 L205.110111,21.8723556 L205.110111,20.5802667 L206.640425,19.5096889 L205.395769,19.5096889 C204.509946,20.4728889 203.607237,21.3230222 202.687993,22.0593778 L202.687993,22.0593778 Z M209.180395,17.8094222 L209.180395,19.5605333 L207.145253,21.0222222 L207.145253,21.6853333 C208.142948,21.6060444 209.118479,21.5210667 210.071847,21.4304 C210.026817,22.2577778 209.998674,22.8981333 209.987768,23.3514667 C208.989722,23.4421333 208.042334,23.5328 207.145253,23.6234667 L207.145253,24.7793778 C207.122738,25.9015111 206.629168,26.5187556 205.664894,26.6321778 C205.059452,26.6887111 204.179257,26.7175111 203.02431,26.7175111 C202.912087,26.0714667 202.783329,25.4254222 202.637686,24.7793778 C203.35535,24.8135111 203.921391,24.8302222 204.33651,24.8302222 C204.851892,24.8188444 205.110111,24.5696 205.110111,24.0821333 L205.110111,23.8275556 C203.854198,23.952 202.693621,24.0768 201.62803,24.2012444 L201.342371,22.1443556 C201.656525,22.1329778 201.964347,22.1162667 202.267596,22.0935111 C201.931278,21.4812444 201.611496,20.9376 201.308599,20.4615111 C201.79056,20.1326222 202.20568,19.8154667 202.553254,19.5096889 L201.460223,19.5096889 L201.460223,17.8094222 L204.268966,17.8094222 C204.549347,17.5150222 204.846263,17.1861333 205.160418,16.8234667 L201.409564,16.8234667 L201.409564,15.0556444 L204.235545,15.0556444 L204.235545,13.7976889 L202.031892,13.7976889 L202.031892,12.0295111 L204.235545,12.0295111 L204.235545,10.2279111 L206.287573,10.2279111 L206.287573,12.0295111 L208.070126,12.0295111 L208.070126,13.2878222 C208.38428,12.8572444 208.726226,12.3527111 209.096316,11.7745778 L210.711061,12.8117333 C210.161204,13.6504889 209.628936,14.3982222 209.113202,15.0556444 L209.735178,15.0556444 L209.735178,16.7384889 C210.699804,14.6759111 211.417469,12.5056 211.888172,10.2279111 L214.125597,10.4487111 C213.912057,11.3102222 213.693591,12.1258667 213.469497,12.8967111 L217.792371,12.8967111 L217.792371,14.9706667 L217.102499,14.9706667 C216.878052,17.8833778 216.222304,20.3424 215.134549,22.3484444 C215.90815,23.2661333 216.839003,24.0142222 217.926757,24.5923556 C217.522895,25.0570667 217.034954,25.8104889 216.463284,26.8533333 C215.442723,26.1393778 214.551623,25.3063111 213.788928,24.3544889 C212.869684,25.4648889 211.759063,26.3772444 210.458823,27.0912 C209.953996,26.3658667 209.387603,25.6860444 208.759999,25.0513778 C210.262169,24.3488 211.495919,23.4140444 212.460193,22.2464 C211.921945,21.1925333 211.501548,20.0252444 211.199003,18.7445333 C211.008329,19.1185778 210.812027,19.4641778 210.610096,19.7813333 C210.240006,19.1015111 209.785837,18.4103111 209.24794,17.7073778 C209.393584,17.4243556 209.539228,17.1296 209.684871,16.8234667 L207.68315,16.8234667 C207.402768,17.1633778 207.133996,17.4922667 206.875777,17.8094222 L209.180395,17.8094222 Z" id="Fill-21" fill="#0077C0" mask="url(#mask-4)"></path>
                    <path d="M228.355094,14.12064 L229.179353,13.4404622 L225.949862,13.4404622 C224.97433,14.0072178 224.094135,14.5572622 223.308926,15.0895289 C224.8118,15.0443733 226.8582,14.9764622 229.448125,14.88544 C229.089644,14.6361956 228.725183,14.3812622 228.355094,14.12064 L228.355094,14.12064 Z M222.804802,22.3652622 L230.827871,22.3652622 L230.827871,21.4642844 L222.804802,21.4642844 L222.804802,22.3652622 Z M222.804802,20.00224 L230.827871,20.00224 L230.827871,19.1012622 L222.804802,19.1012622 L222.804802,20.00224 Z M222.804802,26.85344 L220.449525,26.85344 L220.449525,17.4354844 L233.182444,17.4354844 L233.182444,24.2184178 C233.182444,25.71424 232.503829,26.5359289 231.147302,26.6834844 C230.182676,26.7737956 229.190258,26.8079289 228.170049,26.7851733 C228.057826,26.2184178 227.878761,25.5499733 227.6318,24.7794844 C228.472945,24.82464 229.212773,24.8417067 229.851987,24.8303289 C230.457781,24.8303289 230.777212,24.4961067 230.810632,23.8273067 L222.804802,23.8273067 L222.804802,26.85344 Z M218.784472,11.5876622 L225.546351,11.5876622 C225.366583,11.17984 225.187167,10.7659733 225.007751,10.3467733 L227.564607,10.0577067 C227.754929,10.4658844 227.990632,10.9757511 228.271014,11.5876622 L234.847496,11.5876622 L234.847496,13.4404622 L230.608701,13.4404622 C232.391957,14.6191289 233.720692,15.4977067 234.595258,16.0754844 L233.098013,17.4017067 C232.683245,17.1183289 232.245962,16.8178844 231.786516,16.5003733 C226.247129,16.5913956 222.423454,16.7442844 220.315138,16.9593956 L219.625618,15.2257067 C220.724629,14.7609956 221.778612,14.1661511 222.787915,13.4404622 L218.784472,13.4404622 L218.784472,11.5876622 Z" id="Fill-22" fill="#0077C0" mask="url(#mask-4)"></path>
                    <polygon id="Fill-23" fill="#0077C0" mask="url(#mask-4)" points="152.525554 27.6252444 152.935397 27.6252444 152.935397 8.66346667 152.525554 8.66346667"></polygon>
                </g>
            </g>
        </g>
    </g>
</svg>